<svg xmlns="http://www.w3.org/2000/svg" viewBox="-250.0 -2950.0 11900.0 3500.0">
<line class="ground" x1="-250.0" y1="0.0" x2="11650.0" y2="0.0" stroke="black" stroke-width="10.0"/>
<rect class="wall elevation" data-id="W-004" x="0.0" y="-2700.0" width="11400.0" height="2700.0" fill="white" stroke="black" stroke-width="20.0"/>
<rect class="opening door" data-id="D-001" x="8142.5" y="-2040.0" width="915.0" height="2040.0" fill="white" stroke="black" stroke-width="20.0"/>
<rect class="wall elevation" data-id="W-006" x="3600.0" y="-2700.0" width="3400.0" height="2700.0" fill="white" stroke="black" stroke-width="20.0"/>
<rect class="opening door" data-id="D-004" x="4094.5" y="-2040.0" width="711.0" height="2040.0" fill="white" stroke="black" stroke-width="20.0"/>
<rect class="opening door" data-id="D-005" x="5692.5" y="-2040.0" width="915.0" height="2040.0" fill="white" stroke="black" stroke-width="20.0" stroke-dasharray="240.0 120.0"/>
<rect class="wall elevation" data-id="W-007" x="5225.0" y="-2700.0" width="150.0" height="2700.0" fill="white" stroke="black" stroke-width="20.0" stroke-dasharray="240.0 120.0"/>
<rect class="wall elevation" data-id="W-008" x="6950.1" y="-2700.0" width="249.8" height="2700.0" fill="white" stroke="black" stroke-width="20.0" stroke-dasharray="240.0 120.0"/>
<rect class="wall elevation" data-id="W-018" x="5654.0" y="-2700.0" width="92.0" height="2700.0" fill="white" stroke="black" stroke-width="20.0"/>
<rect class="wall elevation" data-id="W-019" x="7954.0" y="-2700.0" width="92.0" height="2700.0" fill="white" stroke="black" stroke-width="20.0"/>
<rect class="wall elevation" data-id="W-020" x="7000.0" y="-2700.0" width="1000.0" height="2700.0" fill="white" stroke="black" stroke-width="20.0"/>
<rect class="opening door" data-id="D-013" x="7119.0" y="-2040.0" width="762.0" height="2040.0" fill="white" stroke="black" stroke-width="20.0"/>
<rect class="wall elevation" data-id="W-021" x="8000.0" y="-2700.0" width="3400.0" height="2700.0" fill="white" stroke="black" stroke-width="20.0"/>
<rect class="opening door" data-id="D-007" x="9042.5" y="-2040.0" width="915.0" height="2040.0" fill="white" stroke="black" stroke-width="20.0"/>
<rect class="wall elevation" data-id="W-023" x="10124.0" y="-2700.0" width="152.0" height="2700.0" fill="white" stroke="black" stroke-width="20.0"/>
<rect class="wall elevation" data-id="W-003" x="0.0" y="-2700.0" width="3600.0" height="2700.0" fill="white" stroke="black" stroke-width="20.0"/>
<rect class="wall elevation" data-id="W-025" x="1124.0" y="-2700.0" width="152.0" height="2700.0" fill="white" stroke="black" stroke-width="20.0"/>
<rect class="wall cut" data-id="W-001" x="-125.0" y="-2700.0" width="250.0" height="2700.0" fill="black"/>
<rect class="wall cut" data-id="W-005" x="3550.0" y="-2700.0" width="100.0" height="2700.0" fill="black"/>
<rect class="opening door cut" data-id="D-012" x="3550.0" y="-2040.0" width="100.0" height="2040.0" fill="white"/>
<rect class="wall cut" data-id="W-017" x="11275.0" y="-2700.0" width="250.0" height="2700.0" fill="black"/>
<rect class="wall cut" data-id="W-022" x="7954.0" y="-2700.0" width="92.0" height="2700.0" fill="black"/>
<rect class="family" data-id="F-002" x="1200.0" y="-2100.0" width="1200.0" height="2100.0" fill="none" stroke="grey" stroke-width="20.0"/>
<rect class="family" data-id="F-004" x="2150.0" y="-600.0" width="1372.0" height="600.0" fill="none" stroke="grey" stroke-width="20.0"/>
<rect class="family" data-id="F-005" x="1276.0" y="-2100.0" width="600.0" height="2100.0" fill="none" stroke="grey" stroke-width="20.0"/>
<rect class="family" data-id="F-006" x="400.0" y="-800.0" width="400.0" height="800.0" fill="none" stroke="grey" stroke-width="20.0"/>
<rect class="family" data-id="F-007" x="350.0" y="-850.0" width="500.0" height="850.0" fill="none" stroke="grey" stroke-width="20.0"/>
<rect class="family" data-id="F-008" x="3702.0" y="-600.0" width="1905.0" height="600.0" fill="none" stroke="grey" stroke-width="20.0"/>
<rect class="family" data-id="F-009" x="3650.0" y="-750.0" width="450.0" height="750.0" fill="none" stroke="grey" stroke-width="20.0"/>
<rect class="family" data-id="F-010" x="5746.0" y="-600.0" width="1905.0" height="600.0" fill="none" stroke="grey" stroke-width="20.0"/>
<rect class="family" data-id="F-011" x="5746.0" y="-750.0" width="450.0" height="750.0" fill="none" stroke="grey" stroke-width="20.0"/>
<rect class="family" data-id="F-012" x="10600.0" y="-800.0" width="400.0" height="800.0" fill="none" stroke="grey" stroke-width="20.0"/>
<rect class="device receptacle" data-id="E-001" x="75.0" y="-440.0" width="100.0" height="120.0" fill="white" stroke="black" stroke-width="15.0"/>
<rect class="device receptacle" data-id="E-003" x="3500.0" y="-440.0" width="100.0" height="120.0" fill="white" stroke="black" stroke-width="15.0"/>
<rect class="device receptacle" data-id="E-004" x="1750.0" y="-440.0" width="100.0" height="120.0" fill="white" stroke="black" stroke-width="15.0"/>
<rect class="device receptacle" data-id="E-005" x="1226.0" y="-440.0" width="100.0" height="120.0" fill="white" stroke="black" stroke-width="15.0"/>
<rect class="device receptacle" data-id="E-006" x="1226.0" y="-440.0" width="100.0" height="120.0" fill="white" stroke="black" stroke-width="15.0"/>
<rect class="device receptacle" data-id="E-007" x="2350.0" y="-440.0" width="100.0" height="120.0" fill="white" stroke="black" stroke-width="15.0"/>
<rect class="device receptacle" data-id="E-008" x="3500.0" y="-440.0" width="100.0" height="120.0" fill="white" stroke="black" stroke-width="15.0"/>
<rect class="device receptacle" data-id="E-009" x="2350.0" y="-440.0" width="100.0" height="120.0" fill="white" stroke="black" stroke-width="15.0"/>
<rect class="device receptacle" data-id="E-010" x="3600.0" y="-440.0" width="100.0" height="120.0" fill="white" stroke="black" stroke-width="15.0"/>
<rect class="device receptacle" data-id="E-011" x="5202.8" y="-440.0" width="100.0" height="120.0" fill="white" stroke="black" stroke-width="15.0"/>
<rect class="device receptacle" data-id="E-012" x="5604.0" y="-440.0" width="100.0" height="120.0" fill="white" stroke="black" stroke-width="15.0"/>
<rect class="device receptacle" data-id="E-013" x="4600.0" y="-440.0" width="100.0" height="120.0" fill="white" stroke="black" stroke-width="15.0"/>
<rect class="device receptacle" data-id="E-014" x="5696.0" y="-440.0" width="100.0" height="120.0" fill="white" stroke="black" stroke-width="15.0"/>
<rect class="device receptacle" data-id="E-015" x="6300.0" y="-440.0" width="100.0" height="120.0" fill="white" stroke="black" stroke-width="15.0"/>
<rect class="device receptacle" data-id="E-016" x="7904.0" y="-440.0" width="100.0" height="120.0" fill="white" stroke="black" stroke-width="15.0"/>
<rect class="device receptacle" data-id="E-017" x="6800.0" y="-440.0" width="100.0" height="120.0" fill="white" stroke="black" stroke-width="15.0"/>
<rect class="device receptacle" data-id="E-018" x="7996.0" y="-440.0" width="100.0" height="120.0" fill="white" stroke="black" stroke-width="15.0"/>
<rect class="device receptacle" data-id="E-020" x="11225.0" y="-440.0" width="100.0" height="120.0" fill="white" stroke="black" stroke-width="15.0"/>
<rect class="device receptacle" data-id="E-021" x="11225.0" y="-440.0" width="100.0" height="120.0" fill="white" stroke="black" stroke-width="15.0"/>
<rect class="device receptacle" data-id="E-022" x="8471.2" y="-440.0" width="100.0" height="120.0" fill="white" stroke="black" stroke-width="15.0"/>
<rect class="device receptacle" data-id="E-023" x="10628.8" y="-440.0" width="100.0" height="120.0" fill="white" stroke="black" stroke-width="15.0"/>
<rect class="device receptacle" data-id="E-024" x="7904.0" y="-440.0" width="100.0" height="120.0" fill="white" stroke="black" stroke-width="15.0"/>
<rect class="device receptacle" data-id="E-026" x="3600.0" y="-440.0" width="100.0" height="120.0" fill="white" stroke="black" stroke-width="15.0"/>
<rect class="device gfci" data-id="E-031" x="850.0" y="-1210.0" width="100.0" height="120.0" fill="white" stroke="black" stroke-width="15.0"/>
<rect class="device receptacle" data-id="E-032" x="3600.0" y="-440.0" width="100.0" height="120.0" fill="white" stroke="black" stroke-width="15.0"/>
<rect class="device receptacle_240" data-id="E-034" x="7904.0" y="-440.0" width="100.0" height="120.0" fill="white" stroke="black" stroke-width="15.0"/>
<rect class="device switch" data-id="E-035" x="9157.5" y="-1280.0" width="100.0" height="120.0" fill="white" stroke="black" stroke-width="15.0"/>
<rect class="device switch" data-id="E-036" x="3500.0" y="-1280.0" width="100.0" height="120.0" fill="white" stroke="black" stroke-width="15.0"/>
<rect class="device switch" data-id="E-037" x="4905.5" y="-1280.0" width="100.0" height="120.0" fill="white" stroke="black" stroke-width="15.0"/>
<rect class="device switch" data-id="E-039" x="10057.5" y="-1280.0" width="100.0" height="120.0" fill="white" stroke="black" stroke-width="15.0"/>
<rect class="device switch" data-id="E-040" x="7904.0" y="-1280.0" width="100.0" height="120.0" fill="white" stroke="black" stroke-width="15.0"/>
<rect class="device switch" data-id="E-041" x="1074.0" y="-1280.0" width="100.0" height="120.0" fill="white" stroke="black" stroke-width="15.0"/>
<rect class="device switch" data-id="E-042" x="10074.0" y="-1280.0" width="100.0" height="120.0" fill="white" stroke="black" stroke-width="15.0"/>
<rect class="device switch" data-id="E-044" x="3250.0" y="-1280.0" width="100.0" height="120.0" fill="white" stroke="black" stroke-width="15.0"/>
<rect class="device switch" data-id="E-045" x="7904.0" y="-1280.0" width="100.0" height="120.0" fill="white" stroke="black" stroke-width="15.0"/>
<polyline class="pipe sanitary" data-id="P-001" points="5133.3,300.0 5133.3,-2700.0" fill="none" stroke="#1f4e9c" stroke-width="76.0" stroke-linejoin="round"/>
<polyline class="pipe sanitary" data-id="P-003" points="600.0,191.8 600.0,217.2" fill="none" stroke="#1f4e9c" stroke-width="76.0" stroke-linejoin="round"/>
<polyline class="pipe sanitary" data-id="P-004" points="600.0,217.2 600.0,220.6" fill="none" stroke="#1f4e9c" stroke-width="76.0" stroke-linejoin="round"/>
<polyline class="pipe sanitary" data-id="P-005" points="600.0,220.6 5133.3,267.8" fill="none" stroke="#1f4e9c" stroke-width="76.0" stroke-linejoin="round"/>
<polyline class="pipe sanitary" data-id="P-006" points="10800.0,188.0 10800.0,208.8" fill="none" stroke="#1f4e9c" stroke-width="76.0" stroke-linejoin="round"/>
<polyline class="pipe sanitary" data-id="P-007" points="10800.0,208.8 5133.3,267.8" fill="none" stroke="#1f4e9c" stroke-width="76.0" stroke-linejoin="round"/>
<polyline class="conduit" data-id="Q-004" points="1800.0,-380.0 1800.0,-2600.0" fill="none" stroke="#e08a00" stroke-width="20.0" stroke-dasharray="120.0 60.0"/>
<polyline class="conduit" data-id="Q-005" points="1200.0,-380.0 1200.0,-2600.0" fill="none" stroke="#e08a00" stroke-width="20.0" stroke-dasharray="120.0 60.0"/>
<polyline class="conduit" data-id="Q-006" points="1200.0,-380.0 1200.0,-2600.0" fill="none" stroke="#e08a00" stroke-width="20.0" stroke-dasharray="120.0 60.0"/>
<polyline class="conduit" data-id="Q-007" points="2400.0,-380.0 2400.0,-2600.0" fill="none" stroke="#e08a00" stroke-width="20.0" stroke-dasharray="120.0 60.0"/>
<polyline class="conduit" data-id="Q-008" points="3600.0,-380.0 3600.0,-2600.0" fill="none" stroke="#e08a00" stroke-width="20.0" stroke-dasharray="120.0 60.0"/>
<polyline class="conduit" data-id="Q-009" points="2400.0,-380.0 2400.0,-2600.0" fill="none" stroke="#e08a00" stroke-width="20.0" stroke-dasharray="120.0 60.0"/>
<polyline class="conduit" data-id="Q-010" points="3600.0,-380.0 3600.0,-2600.0" fill="none" stroke="#e08a00" stroke-width="20.0" stroke-dasharray="120.0 60.0"/>
<polyline class="conduit" data-id="Q-011" points="5252.8,-380.0 5252.8,-2600.0" fill="none" stroke="#e08a00" stroke-width="20.0" stroke-dasharray="120.0 60.0"/>
<polyline class="conduit" data-id="Q-012" points="5700.0,-380.0 5700.0,-2600.0" fill="none" stroke="#e08a00" stroke-width="20.0" stroke-dasharray="120.0 60.0"/>
<polyline class="conduit" data-id="Q-013" points="4650.0,-380.0 4650.0,-2600.0" fill="none" stroke="#e08a00" stroke-width="20.0" stroke-dasharray="120.0 60.0"/>
<polyline class="conduit" data-id="Q-014" points="5700.0,-380.0 5700.0,-2600.0" fill="none" stroke="#e08a00" stroke-width="20.0" stroke-dasharray="120.0 60.0"/>
<polyline class="conduit" data-id="Q-015" points="6350.0,-380.0 6350.0,-2600.0" fill="none" stroke="#e08a00" stroke-width="20.0" stroke-dasharray="120.0 60.0"/>
<polyline class="conduit" data-id="Q-016" points="8000.0,-380.0 8000.0,-2600.0" fill="none" stroke="#e08a00" stroke-width="20.0" stroke-dasharray="120.0 60.0"/>
<polyline class="conduit" data-id="Q-017" points="6850.0,-380.0 6850.0,-2600.0" fill="none" stroke="#e08a00" stroke-width="20.0" stroke-dasharray="120.0 60.0"/>
<polyline class="conduit" data-id="Q-022" points="8521.2,-380.0 8521.2,-2600.0" fill="none" stroke="#e08a00" stroke-width="20.0" stroke-dasharray="120.0 60.0"/>
<polyline class="conduit" data-id="Q-023" points="10678.8,-380.0 10678.8,-2600.0" fill="none" stroke="#e08a00" stroke-width="20.0" stroke-dasharray="120.0 60.0"/>
<polyline class="conduit" data-id="Q-031" points="900.0,-1150.0 900.0,-2600.0" fill="none" stroke="#e08a00" stroke-width="20.0" stroke-dasharray="120.0 60.0"/>
<polyline class="conduit" data-id="Q-035" points="9207.5,-1220.0 9207.5,-2600.0" fill="none" stroke="#e08a00" stroke-width="20.0" stroke-dasharray="120.0 60.0"/>
<polyline class="conduit" data-id="Q-036" points="3600.0,-1220.0 3600.0,-2600.0" fill="none" stroke="#e08a00" stroke-width="20.0" stroke-dasharray="120.0 60.0"/>
<polyline class="conduit" data-id="Q-037" points="4955.5,-1220.0 4955.5,-2600.0" fill="none" stroke="#e08a00" stroke-width="20.0" stroke-dasharray="120.0 60.0"/>
<polyline class="conduit" data-id="Q-039" points="10107.5,-1220.0 10107.5,-2600.0" fill="none" stroke="#e08a00" stroke-width="20.0" stroke-dasharray="120.0 60.0"/>
<polyline class="conduit" data-id="Q-041" points="1200.0,-1220.0 1200.0,-2600.0" fill="none" stroke="#e08a00" stroke-width="20.0" stroke-dasharray="120.0 60.0"/>
<polyline class="conduit" data-id="Q-042" points="10200.0,-1220.0 10200.0,-2600.0" fill="none" stroke="#e08a00" stroke-width="20.0" stroke-dasharray="120.0 60.0"/>
<polyline class="conduit" data-id="Q-044" points="3300.0,-1220.0 3300.0,-2600.0" fill="none" stroke="#e08a00" stroke-width="20.0" stroke-dasharray="120.0 60.0"/>
<polyline class="conduit" data-id="Q-045" points="8000.0,-1220.0 8000.0,-2600.0" fill="none" stroke="#e08a00" stroke-width="20.0" stroke-dasharray="120.0 60.0"/>
<polyline class="conduit" data-id="Q-046" points="0.0,-2600.0 0.0,-2600.0 1200.0,-2600.0" fill="none" stroke="#e08a00" stroke-width="20.0" stroke-dasharray="120.0 60.0"/>
<polyline class="conduit" data-id="Q-047" points="900.0,-2600.0 1200.0,-2600.0" fill="none" stroke="#e08a00" stroke-width="20.0" stroke-dasharray="120.0 60.0"/>
<polyline class="conduit" data-id="Q-048" points="1200.0,-2600.0 1200.0,-2600.0" fill="none" stroke="#e08a00" stroke-width="20.0" stroke-dasharray="120.0 60.0"/>
<polyline class="conduit" data-id="Q-049" points="1200.0,-2600.0 3600.0,-2600.0" fill="none" stroke="#e08a00" stroke-width="20.0" stroke-dasharray="120.0 60.0"/>
<polyline class="conduit" data-id="Q-050" points="1200.0,-2600.0 1200.0,-2600.0" fill="none" stroke="#e08a00" stroke-width="20.0" stroke-dasharray="120.0 60.0"/>
<polyline class="conduit" data-id="Q-051" points="1200.0,-2600.0 3600.0,-2600.0" fill="none" stroke="#e08a00" stroke-width="20.0" stroke-dasharray="120.0 60.0"/>
<polyline class="conduit" data-id="Q-055" points="3600.0,-2600.0 3600.0,-2600.0" fill="none" stroke="#e08a00" stroke-width="20.0" stroke-dasharray="120.0 60.0"/>
<polyline class="conduit" data-id="Q-057" points="3600.0,-2600.0 3600.0,-2600.0" fill="none" stroke="#e08a00" stroke-width="20.0" stroke-dasharray="120.0 60.0"/>
<polyline class="conduit" data-id="Q-058" points="3600.0,-2600.0 3600.0,-2600.0" fill="none" stroke="#e08a00" stroke-width="20.0" stroke-dasharray="120.0 60.0"/>
<polyline class="conduit" data-id="Q-059" points="3600.0,-2600.0 5700.0,-2600.0" fill="none" stroke="#e08a00" stroke-width="20.0" stroke-dasharray="120.0 60.0"/>
<polyline class="conduit" data-id="Q-060" points="3600.0,-2600.0 4650.0,-2600.0" fill="none" stroke="#e08a00" stroke-width="20.0" stroke-dasharray="120.0 60.0"/>
<polyline class="conduit" data-id="Q-063" points="5700.0,-2600.0 5700.0,-2600.0" fill="none" stroke="#e08a00" stroke-width="20.0" stroke-dasharray="120.0 60.0"/>
<polyline class="conduit" data-id="Q-064" points="5700.0,-2600.0 8000.0,-2600.0" fill="none" stroke="#e08a00" stroke-width="20.0" stroke-dasharray="120.0 60.0"/>
<polyline class="conduit" data-id="Q-065" points="6850.0,-2600.0 8000.0,-2600.0" fill="none" stroke="#e08a00" stroke-width="20.0" stroke-dasharray="120.0 60.0"/>
<polyline class="conduit" data-id="Q-075" points="8000.0,-2600.0 8000.0,-2600.0" fill="none" stroke="#e08a00" stroke-width="20.0" stroke-dasharray="120.0 60.0"/>
<polyline class="conduit" data-id="Q-076" points="8000.0,-2600.0 8000.0,-2600.0" fill="none" stroke="#e08a00" stroke-width="20.0" stroke-dasharray="120.0 60.0"/>
<polyline class="conduit" data-id="Q-077" points="8000.0,-2600.0 10200.0,-2600.0" fill="none" stroke="#e08a00" stroke-width="20.0" stroke-dasharray="120.0 60.0"/>
<polyline class="conduit" data-id="Q-078" points="8000.0,-2600.0 8000.0,-2600.0" fill="none" stroke="#e08a00" stroke-width="20.0" stroke-dasharray="120.0 60.0"/>
<polyline class="conduit" data-id="Q-079" points="8000.0,-2600.0 9207.5,-2600.0" fill="none" stroke="#e08a00" stroke-width="20.0" stroke-dasharray="120.0 60.0"/>
<polyline class="conduit" data-id="Q-080" points="10200.0,-2600.0 10200.0,-2600.0" fill="none" stroke="#e08a00" stroke-width="20.0" stroke-dasharray="120.0 60.0"/>
<polyline class="conduit" data-id="Q-081" points="10200.0,-2600.0 11400.0,-2600.0 11400.0,-2600.0" fill="none" stroke="#e08a00" stroke-width="20.0" stroke-dasharray="120.0 60.0"/>
</svg>
